<?xml version="1.0" encoding="UTF-8"?>
<!DOCTYPE svg PUBLIC "-//W3C//DTD SVG 1.0//EN" "http://www.w3.org/TR/2001/REC-SVG-20010904/DTD/svg10.dtd">
<!-- Creator: CorelDRAW X7 -->
<svg xmlns="http://www.w3.org/2000/svg" xml:space="preserve" width="210mm" height="297mm" version="1.0" style="shape-rendering:geometricPrecision; text-rendering:geometricPrecision; image-rendering:optimizeQuality; fill-rule:evenodd; clip-rule:evenodd"
viewBox="0 0 21000 29700"
 xmlns:xlink="http://www.w3.org/1999/xlink">
 <defs>
  <style type="text/css">
   <![CDATA[
    .str0 {stroke:white;stroke-width:700}
    .fil2 {fill:none}
    .fil1 {fill:#FEFEFE}
    .fil0 {fill:white}
   ]]>
  </style>
 </defs>
 <g id="Layer_x0020_1">
  <metadata id="CorelCorpID_0Corel-Layer"/>
  <path class="fil0" d="M9953 8282l0 -1136 -412 0 0 -147c56,0 105,-7 154,-14 49,-7 97,-21 139,-48 42,-21 77,-56 105,-91 28,-42 49,-91 56,-147l146 0 0 1583 -188 0zm599 -1248c21,-70 56,-125 98,-174 42,-49 98,-91 167,-119 63,-28 140,-42 223,-42 70,0 133,7 196,28 62,21 111,49 160,84 42,35 77,84 104,139 28,56 42,119 42,196 0,69 -14,132 -35,188 -21,56 -48,104 -83,146 -35,42 -77,84 -126,112 -49,35 -90,70 -139,97 -49,28 -98,56 -147,91 -48,35 -90,63 -132,91 -42,35 -77,69 -105,104 -27,35 -48,84 -55,133l808 0 0 167 -1031 0c7,-91 20,-174 48,-237 28,-63 56,-126 98,-174 42,-49 84,-91 139,-133 49,-35 105,-69 161,-104 69,-42 125,-77 174,-112 49,-35 91,-70 125,-104 35,-35 56,-77 77,-119 21,-42 28,-91 28,-146 0,-42 -7,-84 -28,-119 -14,-35 -35,-63 -63,-91 -27,-27 -62,-41 -97,-55 -35,-14 -77,-21 -119,-21 -55,0 -104,14 -139,35 -42,21 -70,55 -98,90 -28,35 -42,77 -55,126 -14,49 -14,90 -14,139l-189 0c-21,-70 -14,-146 7,-216zm3653 2328l0 -1136 -411 0 0 -153c56,0 105,-7 153,-14 49,-7 98,-21 140,-49 42,-21 76,-56 104,-91 28,-41 49,-90 56,-146l146 0 0 1583 -188 0 0 6zm2259 1464c21,-69 56,-125 98,-174 41,-49 97,-90 167,-118 63,-28 139,-42 223,-42 70,0 132,7 195,28 63,21 112,49 160,83 42,35 77,84 105,140 28,56 42,118 42,195 0,70 -14,132 -35,188 -21,56 -49,105 -84,147 -35,41 -76,83 -125,111 -49,35 -91,70 -140,98 -48,28 -97,56 -146,90 -49,35 -91,63 -132,91 -42,35 -77,70 -105,105 -28,34 -49,83 -56,132l809 0 0 167 -1039 0c7,-90 21,-174 49,-237 28,-62 56,-125 98,-174 41,-49 83,-91 139,-132 49,-35 105,-70 160,-105 70,-42 126,-77 175,-112 48,-34 90,-69 125,-104 35,-35 56,-77 77,-119 21,-41 28,-90 28,-146 0,-42 -7,-84 -28,-119 -14,-34 -35,-62 -63,-90 -28,-28 -63,-42 -98,-56 -34,-14 -76,-21 -118,-21 -56,0 -105,14 -139,35 -42,21 -70,56 -98,91 -28,35 -42,76 -56,125 -14,49 -14,91 -14,140l-188 0c-14,-77 -7,-147 14,-217zm1304 3897l62 0c42,0 77,-7 112,-14 35,-7 70,-27 97,-48 28,-21 49,-49 63,-84 14,-35 28,-70 28,-112 0,-83 -28,-146 -84,-188 -55,-42 -118,-63 -202,-63 -49,0 -97,7 -132,28 -35,21 -70,42 -91,77 -28,28 -42,70 -56,112 -14,41 -21,83 -21,132l-188 0c0,-77 14,-146 35,-209 21,-63 56,-119 91,-160 42,-42 90,-77 153,-105 63,-28 133,-35 209,-35 70,0 133,7 188,28 56,21 112,42 154,77 42,35 77,76 104,132 28,56 35,119 35,188 0,70 -21,133 -62,189 -42,55 -91,97 -154,125l0 7c98,21 167,70 216,139 49,70 70,154 70,251 0,77 -14,147 -42,210 -28,62 -70,111 -118,153 -49,42 -105,70 -175,91 -69,21 -139,27 -209,27 -83,0 -153,-13 -216,-34 -63,-21 -118,-56 -167,-98 -49,-42 -84,-98 -105,-160 -28,-63 -35,-140 -35,-216l189 0c0,104 34,188 90,251 56,62 140,97 251,97 49,0 91,-7 133,-21 41,-14 76,-35 111,-63 35,-27 56,-55 77,-97 21,-42 28,-84 28,-126 0,-48 -7,-90 -28,-132 -21,-42 -42,-70 -70,-98 -28,-28 -63,-48 -104,-55 -42,-7 -84,-21 -133,-21 -42,0 -77,0 -111,7l0 -189c-7,7 0,7 7,7zm-237 4092l0 168 -217 0 0 369 -181 0 0 -369 -697 0 0 -181 718 -1032 153 0 0 1045 224 0zm-391 -773l-530 773 530 0 0 -773 0 0zm-3130 2558l-84 453 7 7c35,-42 77,-69 133,-83 56,-21 111,-28 160,-28 70,0 140,14 195,35 63,20 119,55 161,104 49,49 83,105 111,167 28,63 42,147 42,237 0,70 -14,133 -35,196 -21,62 -56,118 -104,167 -49,49 -105,91 -175,118 -69,28 -146,42 -244,42 -69,0 -132,-7 -195,-28 -63,-21 -111,-48 -160,-83 -49,-35 -84,-84 -112,-140 -28,-55 -42,-118 -42,-195l189 0c0,42 14,77 28,112 14,35 41,62 69,90 28,28 63,49 105,63 42,14 84,21 132,21 42,0 91,-7 126,-21 42,-14 76,-42 104,-70 28,-28 56,-69 70,-118 21,-49 28,-105 28,-167 0,-49 -7,-98 -28,-147 -21,-49 -42,-84 -70,-111 -28,-28 -69,-56 -111,-77 -42,-21 -91,-28 -147,-28 -62,0 -118,14 -167,42 -49,28 -91,63 -125,111l-161 -7 147 -822 780 0 0 167 -627 0 0 -7zm-3297 1025c-49,-42 -105,-63 -182,-63 -83,0 -146,21 -195,56 -49,35 -90,91 -111,146 -21,56 -49,126 -56,196 -7,69 -14,132 -21,195l7 7c42,-70 98,-126 167,-161 63,-35 140,-48 230,-48 77,0 147,13 203,41 62,28 111,63 153,112 42,49 70,98 97,160 21,63 35,133 35,202 0,56 -7,119 -28,182 -20,62 -48,118 -90,167 -42,49 -98,91 -161,125 -69,35 -153,49 -250,49 -119,0 -210,-21 -286,-69 -77,-49 -126,-112 -168,-182 -41,-76 -62,-153 -76,-244 -14,-90 -21,-174 -21,-258 0,-111 7,-216 28,-313 21,-105 48,-196 97,-272 42,-77 105,-140 182,-188 76,-49 167,-70 278,-70 133,0 237,35 314,104 77,70 119,168 133,300l-189 0c-14,-76 -42,-132 -90,-174zm-342 523c-42,21 -77,42 -104,76 -28,35 -49,70 -63,112 -14,42 -21,91 -21,139 0,49 7,98 21,140 14,42 35,83 63,111 27,28 62,56 104,77 42,21 91,28 140,28 48,0 97,-7 139,-28 42,-21 70,-42 98,-77 27,-34 48,-69 62,-111 14,-42 21,-84 21,-133 0,-48 -7,-97 -21,-139 -14,-42 -35,-84 -56,-112 -27,-34 -62,-55 -97,-76 -35,-21 -84,-28 -140,-28 -62,-7 -104,7 -146,21zm-3249 -1269c-69,112 -132,223 -188,349 -56,125 -97,251 -132,383 -35,132 -56,258 -63,383l-209 0c7,-132 28,-265 63,-390 35,-125 76,-251 132,-363 56,-111 119,-230 188,-334 70,-105 147,-202 230,-286l-815 0 0 -188 1025 0 0 160c-84,84 -161,174 -231,286l0 0zm-3464 -2879c28,-49 63,-91 104,-126 42,-34 91,-62 147,-76 56,-21 111,-28 174,-28 84,0 160,14 223,35 63,21 112,55 147,90 34,35 62,84 83,133 21,49 28,97 28,146 0,70 -21,140 -56,195 -35,56 -90,105 -160,133 98,28 167,76 209,146 42,70 70,154 70,251 0,77 -14,147 -42,202 -28,63 -63,112 -112,154 -48,42 -104,69 -167,90 -63,21 -132,28 -202,28 -77,0 -146,-7 -209,-28 -63,-21 -126,-48 -168,-90 -41,-42 -83,-91 -111,-154 -28,-62 -42,-132 -42,-209 0,-90 21,-174 70,-244 49,-70 118,-118 202,-153 -70,-28 -119,-70 -160,-133 -42,-62 -63,-125 -63,-195 -7,-63 7,-118 35,-167l0 0zm202 1129c63,56 146,84 244,84 49,0 91,-7 132,-21 42,-14 77,-35 105,-63 28,-28 49,-63 70,-97 21,-35 21,-77 21,-126 0,-42 -7,-84 -28,-118 -21,-35 -42,-70 -70,-98 -28,-28 -63,-49 -105,-63 -41,-14 -83,-21 -125,-21 -49,0 -91,7 -133,21 -41,14 -76,35 -104,63 -28,28 -56,56 -70,98 -14,34 -28,76 -28,125 -7,84 21,160 91,216l0 0zm-21 -836c14,35 35,55 63,76 28,21 56,35 90,49 35,7 70,14 112,14 77,0 139,-21 188,-70 49,-41 77,-104 77,-188 0,-84 -28,-139 -77,-181 -49,-42 -111,-63 -188,-63 -35,0 -70,7 -105,14 -34,7 -62,28 -90,49 -28,21 -42,49 -56,77 -14,27 -21,62 -21,104 -14,49 -7,84 7,119l0 0zm-927 -2873c56,42 118,63 195,63 119,0 202,-49 258,-153 56,-105 91,-251 98,-460l-7 -7c-35,70 -84,118 -154,160 -63,42 -139,56 -216,56 -84,0 -153,-14 -216,-42 -63,-28 -112,-63 -160,-111 -42,-49 -77,-105 -98,-168 -21,-63 -35,-139 -35,-216 0,-77 14,-146 35,-209 28,-63 63,-119 105,-160 48,-49 104,-84 167,-105 63,-28 132,-35 209,-35 77,0 146,14 209,35 63,21 126,63 175,119 48,55 90,132 118,230 28,97 42,223 42,369 0,272 -42,481 -133,628 -83,146 -223,223 -418,223 -132,0 -244,-35 -328,-98 -83,-63 -139,-167 -146,-307l188 0c28,84 63,147 112,188l0 0zm502 -989c-14,-42 -35,-84 -63,-112 -28,-28 -63,-63 -105,-77 -41,-21 -83,-28 -139,-28 -56,0 -105,7 -146,28 -42,21 -70,49 -98,84 -28,35 -42,77 -56,119 -14,41 -14,90 -14,139 0,42 7,84 21,125 14,42 35,77 63,105 28,28 63,56 98,77 34,21 76,28 125,28 49,0 91,-7 133,-28 41,-21 76,-42 104,-77 28,-35 49,-70 63,-112 14,-41 21,-83 21,-132 14,-49 7,-98 -7,-139l0 0zm132 -2433l0 -1130 -404 0 0 -153c56,0 104,-7 153,-14 49,-7 98,-21 140,-49 42,-21 76,-56 104,-90 28,-42 49,-91 56,-147l146 0 0 1583 -195 0zm579 -955c0,-63 7,-126 21,-182 14,-62 28,-118 49,-167 20,-56 55,-98 90,-139 42,-42 91,-70 147,-98 55,-28 132,-35 209,-35 83,0 153,14 209,35 56,21 104,56 146,98 42,41 70,83 91,139 21,56 42,112 49,167 14,63 21,119 21,182 0,62 7,125 7,181 0,56 0,118 -7,181 -7,63 -7,126 -21,181 -14,63 -28,119 -49,168 -21,48 -56,97 -91,139 -42,42 -83,70 -146,98 -63,28 -126,34 -209,34 -84,0 -154,-13 -209,-34 -56,-21 -105,-56 -147,-98 -42,-42 -70,-84 -90,-139 -21,-56 -42,-112 -49,-168 -14,-62 -21,-118 -21,-181 0,-63 -7,-125 -7,-181 7,-56 7,-119 7,-181zm202 376c7,77 14,139 35,209 21,63 56,119 97,167 42,49 105,70 189,70 83,0 139,-21 188,-70 49,-48 77,-97 98,-167 20,-63 34,-132 34,-209 7,-77 7,-139 7,-202l0 -126c0,-48 -7,-90 -14,-139 -7,-49 -14,-91 -27,-139 -14,-42 -28,-84 -56,-119 -28,-35 -56,-63 -91,-84 -35,-21 -84,-28 -139,-28 -56,0 -98,7 -140,28 -35,21 -69,49 -90,84 -28,35 -42,70 -56,119 -14,41 -21,90 -28,139 -7,49 -7,91 -14,139l0 126c7,63 7,132 7,202z"/>
  <g id="_357581240">
   <path class="fil0" d="M6328 9362l0 -1136 -412 0 0 -153c56,0 105,-7 154,-14 49,-7 97,-21 139,-49 42,-21 77,-56 105,-91 28,-41 49,-90 56,-146l146 0 0 1583 -188 0 0 6zm1087 0l0 -1136 -411 0 0 -153c56,0 105,-7 153,-14 49,-7 98,-21 140,-49 42,-21 76,-56 104,-91 28,-41 49,-90 56,-146l146 0 0 1583 -188 0 0 6z"/>
  </g>
  <circle class="fil1" cx="10486" cy="14845" r="696"/>
  <circle class="fil2 str0" cx="10486" cy="14845" r="9293"/>
 </g>
</svg>
